<svg width="18" height="19" viewBox="0 0 18 19" fill="none" xmlns="http://www.w3.org/2000/svg">
<path d="M17.9655 4.87158L11.652 10.6578C10.948 11.3014 9.99431 11.6628 9 11.6628C8.00569 11.6628 7.05197 11.3014 6.348 10.6578L0.0345 4.87158C0.024 4.98019 0 5.07848 0 5.18639V13.4348C0.00119089 14.3459 0.396661 15.2195 1.09966 15.8638C1.80267 16.508 2.7558 16.8705 3.75 16.8716H14.25C15.2442 16.8705 16.1973 16.508 16.9003 15.8638C17.6033 15.2195 17.9988 14.3459 18 13.4348V5.18639C18 5.07848 17.976 4.98019 17.9655 4.87158Z" fill="#1C4CF6"/>
<path d="M10.5553 9.5395L17.25 3.47277C16.9257 2.98552 16.4683 2.58221 15.9219 2.30175C15.3755 2.02129 14.7586 1.87314 14.1306 1.87158H3.8694C3.24143 1.87314 2.6245 2.02129 2.07811 2.30175C1.53172 2.58221 1.07431 2.98552 0.75 3.47277L7.4447 9.5395C7.85776 9.91228 8.41701 10.1216 9 10.1216C9.58299 10.1216 10.1422 9.91228 10.5553 9.5395Z" fill="#1C4CF6"/>
</svg>
