<svg width="18" height="19" viewBox="0 0 18 19" fill="none" xmlns="http://www.w3.org/2000/svg">
<path d="M4.965 8.46408C6.045 10.5866 7.785 12.3191 9.9075 13.4066L11.5575 11.7566C11.76 11.5541 12.06 11.4866 12.3225 11.5766C13.1625 11.8541 14.07 12.0041 15 12.0041C15.4125 12.0041 15.75 12.3416 15.75 12.7541V15.3716C15.75 15.7841 15.4125 16.1216 15 16.1216C7.9575 16.1216 2.25 10.4141 2.25 3.37158C2.25 2.95908 2.5875 2.62158 3 2.62158H5.625C6.0375 2.62158 6.375 2.95908 6.375 3.37158C6.375 4.30908 6.525 5.20908 6.8025 6.04908C6.885 6.31158 6.825 6.60408 6.615 6.81408L4.965 8.46408Z" fill="#1C4CF6"/>
</svg>
