<svg width="18" height="19" viewBox="0 0 18 19" fill="none" xmlns="http://www.w3.org/2000/svg">
<path fill-rule="evenodd" clip-rule="evenodd" d="M2.03629 8.55708C6.05717 6.84941 8.74492 5.74567 10.0995 5.20421C13.9269 3.66314 14.7225 3.39241 15.2385 3.37158C15.346 3.37158 15.6041 3.39241 15.7761 3.51736C15.9051 3.62149 15.9481 3.76726 15.9696 3.87139C15.9911 3.97552 16.0126 4.20459 15.9911 4.39202C15.7761 6.49538 14.8945 11.6392 14.4214 13.9925C14.2279 14.9921 13.8409 15.3253 13.4754 15.367C12.6798 15.4294 12.0562 14.8463 11.2822 14.3673C10.078 13.5968 9.38998 13.1178 8.20737 12.3681C6.85274 11.4935 7.73432 11.0145 8.50839 10.2439C8.70191 10.0357 12.2497 6.93271 12.3143 6.64116C12.3143 6.5995 12.3358 6.47455 12.2497 6.41208C12.1637 6.3496 12.0562 6.37043 11.9702 6.39125C11.8412 6.41208 9.90602 7.6616 6.14317 10.119C5.58412 10.4938 5.08958 10.6604 4.63803 10.6604C4.14349 10.6604 3.1974 10.3897 2.48783 10.1606C1.62775 9.8899 0.939688 9.74413 1.00419 9.28597C1.0472 9.05689 1.39123 8.80699 2.03629 8.55708Z" fill="#1C4CF6"/>
</svg>
