<svg width="14" height="13" viewBox="0 0 14 13" fill="none" xmlns="http://www.w3.org/2000/svg">
<path d="M-1.90735e-06 6.37159C0.00486469 5.84549 0.216843 5.34249 0.589998 4.97159L4.88 0.671591C5.06736 0.48534 5.32081 0.380798 5.585 0.380798C5.84918 0.380798 6.10264 0.48534 6.29 0.671591C6.38373 0.764554 6.45812 0.875155 6.50889 0.997015C6.55966 1.11887 6.5858 1.24958 6.5858 1.38159C6.5858 1.5136 6.55966 1.64431 6.50889 1.76617C6.45812 1.88803 6.38373 1.99863 6.29 2.09159L3 5.37159H13C13.2652 5.37159 13.5196 5.47695 13.7071 5.66448C13.8946 5.85202 14 6.10637 14 6.37159C14 6.63681 13.8946 6.89116 13.7071 7.0787C13.5196 7.26623 13.2652 7.37159 13 7.37159H3L6.29 10.6616C6.4783 10.8486 6.58462 11.1027 6.58556 11.3681C6.58649 11.6334 6.48198 11.8883 6.295 12.0766C6.10802 12.2649 5.8539 12.3712 5.58853 12.3721C5.32317 12.3731 5.0683 12.2686 4.88 12.0816L0.589998 7.78159C0.214411 7.40824 0.00223064 6.90117 -1.90735e-06 6.37159Z" fill="white"/>
</svg>
