<svg width="14" height="13" viewBox="0 0 14 13" fill="none" xmlns="http://www.w3.org/2000/svg">
<path d="M14 6.37159C13.9951 5.84549 13.7832 5.34249 13.41 4.97159L9.12 0.671591C8.93264 0.48534 8.67919 0.380798 8.415 0.380798C8.15082 0.380798 7.89736 0.48534 7.71 0.671591C7.61627 0.764554 7.54188 0.875155 7.49111 0.997015C7.44034 1.11887 7.4142 1.24958 7.4142 1.38159C7.4142 1.5136 7.44034 1.64431 7.49111 1.76617C7.54188 1.88803 7.61627 1.99863 7.71 2.09159L11 5.37159H1C0.734784 5.37159 0.48043 5.47695 0.292893 5.66448C0.105357 5.85202 0 6.10637 0 6.37159C0 6.63681 0.105357 6.89116 0.292893 7.0787C0.48043 7.26623 0.734784 7.37159 1 7.37159H11L7.71 10.6616C7.5217 10.8486 7.41538 11.1027 7.41444 11.3681C7.41351 11.6334 7.51802 11.8883 7.705 12.0766C7.89198 12.2649 8.1461 12.3712 8.41147 12.3721C8.67683 12.3731 8.9317 12.2686 9.12 12.0816L13.41 7.78159C13.7856 7.40824 13.9978 6.90117 14 6.37159Z" fill="white"/>
</svg>
