<svg width="48" height="49" viewBox="0 0 48 49" fill="none" xmlns="http://www.w3.org/2000/svg">
<circle cx="24" cy="24" r="24" transform="matrix(-1 0 0 1 48 0.371582)" fill="white" fill-opacity="0.05"/>
<path d="M18 24.3716C18.0049 23.8455 18.2168 23.3425 18.59 22.9716L22.88 18.6716C23.0674 18.4853 23.3208 18.3808 23.585 18.3808C23.8492 18.3808 24.1026 18.4853 24.29 18.6716C24.3837 18.7646 24.4581 18.8752 24.5089 18.997C24.5597 19.1189 24.5858 19.2496 24.5858 19.3816C24.5858 19.5136 24.5597 19.6443 24.5089 19.7662C24.4581 19.888 24.3837 19.9986 24.29 20.0916L21 23.3716H31C31.2652 23.3716 31.5196 23.4769 31.7071 23.6645C31.8946 23.852 32 24.1064 32 24.3716C32 24.6368 31.8946 24.8912 31.7071 25.0787C31.5196 25.2662 31.2652 25.3716 31 25.3716H21L24.29 28.6616C24.4783 28.8486 24.5846 29.1027 24.5856 29.3681C24.5865 29.6334 24.482 29.8883 24.295 30.0766C24.108 30.2649 23.8539 30.3712 23.5885 30.3721C23.3232 30.3731 23.0683 30.2686 22.88 30.0816L18.59 25.7816C18.2144 25.4082 18.0022 24.9012 18 24.3716Z" fill="white"/>
</svg>
